control3min_grf.mot
version=1
nRows=25
nColumns 19
inDegrees=yes
endheader
time	1_ground_force_vx	1_ground_force_vy	1_ground_force_vz	1_ground_force_px	1_ground_force_py	1_ground_force_pz	1_ground_torque_x	1_ground_torque_y	1_ground_torque_z	2_ground_force_vx	2_ground_force_vy	2_ground_force_vz	2_ground_force_px	2_ground_force_py	2_ground_force_pz	2_ground_torque_x	2_ground_torque_y	2_ground_torque_z
            2.502500	            5.056138	          395.255021	           17.686192	           -0.200585	            0.006594	           -0.490395	            0.003396	            0.265506	            0.011880	           15.773709	          472.017990	            6.510205	           -0.221360	            0.005500	           -0.646001	            0.053900	            1.612929	            0.022246
            2.503000	            5.194270	          386.964399	           17.283447	           -0.200724	            0.006594	           -0.490581	            0.001959	            0.145914	            0.006517	           15.377999	          464.834569	            6.531687	           -0.221234	            0.005501	           -0.646012	            0.053520	            1.617749	            0.022732
            2.503500	            5.011939	          379.393796	           17.113870	           -0.200322	            0.006596	           -0.490798	            0.000173	            0.013128	            0.000592	           14.893369	          456.360698	            6.830178	           -0.221078	            0.005501	           -0.645936	            0.057289	            1.755440	            0.026273
            2.504000	            4.921276	          372.544075	           16.993013	           -0.200132	            0.006593	           -0.490100	            0.001427	            0.108049	            0.004928	           14.588659	          449.914452	            6.760393	           -0.221002	            0.005503	           -0.646336	            0.057284	            1.766646	            0.026546
            2.504500	            4.462877	          365.515758	           16.459590	           -0.199998	            0.006592	           -0.490007	            0.000607	            0.049739	            0.002240	           14.575727	          440.522574	            6.773831	           -0.220935	            0.005501	           -0.645751	            0.058460	            1.766842	            0.027168
            2.505000	            4.464130	          357.404226	           16.333095	           -0.199820	            0.006595	           -0.490673	            0.001230	            0.098504	            0.004502	           14.554192	          433.524251	            6.889667	           -0.220754	            0.005503	           -0.646186	            0.058029	            1.728490	            0.027470
            2.505500	            4.739659	          349.834694	           15.933100	           -0.199817	            0.006593	           -0.490177	            0.002638	            0.194747	            0.008870	           14.537773	          425.054476	            6.530965	           -0.220650	            0.005502	           -0.645957	            0.051745	            1.512929	            0.023246
            2.506000	            5.060771	          342.445799	           15.442053	           -0.199428	            0.006595	           -0.490705	            0.002245	            0.151899	            0.006850	           14.095795	          417.687354	            6.364098	           -0.220537	            0.005503	           -0.646019	            0.052107	            1.544043	            0.023526
            2.506500	            4.968580	          335.238300	           14.677668	           -0.199366	            0.006596	           -0.490829	            0.000896	            0.060455	            0.002647	           13.560928	          410.134519	            6.525110	           -0.220186	            0.005505	           -0.646141	            0.050670	            1.532452	            0.024381
            2.507000	            4.968886	          328.570073	           14.282221	           -0.199117	            0.006595	           -0.490695	           -0.000356	           -0.023526	           -0.001023	           13.259420	          402.768574	            6.170470	           -0.220246	            0.005505	           -0.646250	            0.052699	            1.600781	            0.024524
            2.507500	            4.787220	          321.719156	           14.436727	           -0.199056	            0.006594	           -0.490375	            0.000466	            0.031287	            0.001404	           12.915981	          394.111299	            6.421317	           -0.220181	            0.005504	           -0.645845	            0.055314	            1.687820	            0.027500
            2.508000	            4.421403	          314.148713	           14.221749	           -0.198881	            0.006598	           -0.491226	            0.001304	            0.092624	            0.004193	           12.851442	          386.009073	            6.204733	           -0.219974	            0.005504	           -0.645652	            0.054442	            1.635243	            0.026285
            2.508500	            4.330707	          307.479228	           14.101665	           -0.198812	            0.006597	           -0.491171	            0.001354	            0.096148	            0.004410	           12.594207	          379.379251	            6.040414	           -0.219756	            0.005507	           -0.646289	            0.050663	            1.526135	            0.024299
            2.509000	            4.055597	          301.532404	           13.618281	           -0.198596	            0.006595	           -0.490541	            0.000952	            0.070804	            0.003198	           12.810124	          371.462014	            5.871297	           -0.219689	            0.005505	           -0.645640	            0.048444	            1.404754	            0.022203
            2.509500	            4.605501	          293.964105	           12.942469	           -0.198377	            0.006596	           -0.490759	            0.000669	            0.042733	            0.001881	           12.786598	          365.016174	            5.989104	           -0.219573	            0.005507	           -0.646230	            0.048896	            1.395834	            0.022903
            2.510000	            4.651585	          287.656357	           12.548454	           -0.198371	            0.006597	           -0.491157	           -0.000657	           -0.040631	           -0.001772	           12.204737	          357.464403	            5.821639	           -0.219303	            0.005507	           -0.645957	            0.046246	            1.354511	            0.022059
            2.510500	            4.422641	          282.429819	           12.251471	           -0.198209	            0.006592	           -0.489855	           -0.001409	           -0.089975	           -0.003903	           11.998381	          349.729450	            5.747214	           -0.219128	            0.005508	           -0.646098	            0.048049	            1.400530	            0.023015
            2.511000	            4.377871	          274.678945	           12.080780	           -0.197646	            0.006596	           -0.490890	            0.000403	            0.025259	            0.001111	           11.413217	          343.098276	            5.629963	           -0.218823	            0.005509	           -0.645973	            0.049397	            1.484951	            0.024367
            2.511500	            4.195537	          268.369838	           12.008325	           -0.197679	            0.006595	           -0.490630	            0.001404	            0.089830	            0.004019	           11.436417	          336.653610	            5.466182	           -0.218337	            0.005512	           -0.646351	            0.046439	            1.367033	            0.022196
            2.512000	            3.920865	          263.143033	           11.757312	           -0.197574	            0.006593	           -0.490212	            0.000793	            0.053248	            0.002379	           11.227464	          329.654778	            5.535169	           -0.218616	            0.005512	           -0.646535	            0.046524	            1.366009	            0.022936
            2.512500	            3.829761	          256.834730	           11.501207	           -0.197502	            0.006593	           -0.490107	            0.000217	            0.014531	            0.000651	           11.019238	          322.471303	            5.744284	           -0.218724	            0.005510	           -0.646216	            0.045228	            1.323578	            0.023577
            2.513000	            3.599990	          250.528306	           10.786883	           -0.196909	            0.006593	           -0.490157	           -0.001899	           -0.132155	           -0.005690	           10.580044	          314.366552	            5.856357	           -0.218258	            0.005509	           -0.645514	            0.043227	            1.284401	            0.023927
            2.513500	            4.196645	          244.219909	           10.574927	           -0.196710	            0.006594	           -0.490341	           -0.001522	           -0.088599	           -0.003836	           10.461283	          308.290329	            5.506237	           -0.217732	            0.005515	           -0.646444	            0.041241	            1.215353	            0.021707
            2.514000	            3.829750	          238.813834	           10.094089	           -0.196557	            0.006593	           -0.489938	           -0.002633	           -0.164216	           -0.006941	           10.021321	          300.370617	            5.384327	           -0.217852	            0.005510	           -0.645136	            0.041035	            1.229946	            0.022048
            2.514500	            4.425722	          232.506616	            9.606997	           -0.196610	            0.006591	           -0.489675	            0.001294	            0.067960	            0.002808	            9.762799	          294.108742	            5.315178	           -0.217870	            0.005511	           -0.645522	            0.043014	            1.295825	            0.023418
